<?xml version="1.0" encoding="UTF-8"?><svg xmlns="http://www.w3.org/2000/svg" width="1024" height="1024"><defs><radialGradient id="a" cx="524.276" cy="499.673" r="370" fx="524.276" fy="499.673" gradientTransform="rotate(-.228 -44601.771 54539.74)scale(1.38565 1.3847)" gradientUnits="userSpaceOnUse"><stop offset="0" style="stop-color:#fff70d;stop-opacity:1"/><stop offset="1" style="stop-color:#fff70d;stop-opacity:0"/></radialGradient><radialGradient id="b" cx="314.086" cy="434.843" r="147.556" fx="314.086" fy="434.843" gradientTransform="matrix(.44664 -.49253 1.67935 1.52099 -529.97 -57.896)" gradientUnits="userSpaceOnUse"><stop offset="0" style="stop-color:maroon;stop-opacity:1"/><stop offset="1" style="stop-color:#d70000;stop-opacity:1"/></radialGradient><radialGradient id="c" cx="314.086" cy="434.843" r="147.556" fx="314.086" fy="434.843" gradientTransform="matrix(.44664 -.49253 1.67935 1.52099 -529.97 -57.896)" gradientUnits="userSpaceOnUse"><stop offset="0" style="stop-color:maroon;stop-opacity:1"/><stop offset="1" style="stop-color:#d70000;stop-opacity:1"/></radialGradient><radialGradient id="d" cx="314.086" cy="434.843" r="147.556" fx="314.086" fy="434.843" gradientTransform="matrix(.44664 -.49253 1.67935 1.52099 -529.97 -57.896)" gradientUnits="userSpaceOnUse"><stop offset="0" style="stop-color:maroon;stop-opacity:1"/><stop offset="1" style="stop-color:#d70000;stop-opacity:1"/></radialGradient><radialGradient id="e" cx="314.086" cy="434.843" r="147.556" fx="314.086" fy="434.843" gradientTransform="matrix(.44664 -.49253 1.67935 1.52099 -529.97 -57.896)" gradientUnits="userSpaceOnUse"><stop offset="0" style="stop-color:maroon;stop-opacity:1"/><stop offset="1" style="stop-color:#d70000;stop-opacity:1"/></radialGradient></defs><path d="M1024 511.676C1024 229.086 794.773 0 512.004 0 229.238 0 .008 229.086.008 511.676s229.23 511.676 511.996 511.676c282.77 0 511.996-229.086 511.996-511.676m0 0" style="stroke:none;fill-rule:nonzero;fill:#fffeef;fill-opacity:1"/><path d="M1023.992 512.203c0-282.59-229.226-511.676-511.996-511.676S0 229.613 0 512.203s229.227 511.676 511.996 511.676 511.996-229.086 511.996-511.676m0 0" style="stroke:none;fill-rule:nonzero;fill:url(#a)"/><path d="M369.402 557.844s83.278 1.789 118.918-23.27l5.016 11.278s-60.176 50.832-123.934 11.992m0 0" style="stroke:none;fill-rule:nonzero;fill:#d70000;fill-opacity:1"/><path d="M407.41 514.914s-71.652 53.371-150.793-38.195c0 0 40.383 45.226 150.793 38.195m0 0" style="stroke:none;fill-rule:nonzero;fill:url(#b)"/><path d="M402.473 477.637s-118.297 61.418-198.758-91.11c0 0 41.18 72.239 198.758 91.11m0 0" style="stroke:none;fill-rule:nonzero;fill:url(#c)"/><path d="M481.29 476.086s-66.415-68.922-131.978-81.688c0 0-123.46-31.484-171.14-98.707 0 0-25.543-34.886-29.8-62.117 0 0 69.82 95.305 154.112 111.473 0 0 114.946 25.527 176.25 108.066 0 0 10.22 13.614 2.555 22.973m0 0" style="stroke:none;fill-rule:nonzero;fill:url(#d)"/><path d="M382.52 442.902S250.973 475.66 164.12 299.52c0 0 91.531 113.601 218.399 143.382m0 0" style="stroke:none;fill-rule:nonzero;fill:url(#e)"/><path d="M297.832 897.793c-10.867 0-20.523-2.758-28.977-8.277q-12.592-8.363-19.835-22.977-7.243-14.7-7.243-33.621 0-19.092 7.16-33.707 7.245-14.696 19.918-22.977c8.454-5.574 18.11-8.363 28.977-8.363q9.795.001 18.356 3.125c5.707 2.086 10.812 5.04 15.312 8.871q6.75 5.66 11.273 13.516 4.53 7.771 6.094 17.234h-14.98q-1.403-6.337-4.692-11.574a34.6 34.6 0 0 0-7.984-9.04q-4.775-3.8-10.703-5.827-5.925-2.114-12.676-2.114-12.266 0-21.566 6.504-9.305 6.422-14.489 17.91c-3.457 7.602-5.183 16.419-5.183 26.442q-.001 14.953 5.183 26.355c3.457 7.602 8.286 13.575 14.489 17.91q9.3 6.418 21.566 6.419 10.289.001 18.684-4.73t13.418-13.177q5.022-8.45 5.023-19.601l4.773.254h-36.878v-13.516h46.753v13.602q0 14.7-6.914 26.355-6.83 11.574-18.52 18.332-11.687 6.673-26.339 6.672m122.813 0c-10.813 0-20.415-2.785-28.81-8.363q-12.596-8.363-19.757-22.977-7.16-14.696-7.16-33.535 0-19.008 7.16-33.621 7.161-14.7 19.758-23.063 12.59-8.362 28.809-8.363 16.3.002 28.808 8.363 12.599 8.362 19.758 23.063 7.16 14.614 7.16 33.621 0 18.839-7.16 33.535-7.161 14.614-19.758 22.977-12.509 8.365-28.808 8.363m0-14.191q11.115 0 20.414-5.829c6.199-3.941 11.168-9.687 14.898-17.234 3.73-7.543 5.598-16.754 5.598-27.621q-.001-16.39-5.598-27.707c-3.73-7.606-8.7-13.348-14.898-17.234q-9.3-5.913-20.414-5.914t-20.415 5.914c-6.199 3.886-11.168 9.628-14.898 17.234q-5.596 11.316-5.598 27.707c0 10.867 1.868 20.078 5.598 27.621 3.73 7.547 8.7 13.293 14.898 17.234q9.3 5.83 20.415 5.829m59.843 12.164 45.274-125.868h16.789l44.781 125.868h-15.805l-25.765-75.86A3539 3539 0 0 1 540 802.758q-3.128-9.714-7.984-25.426h4.28q-4.855 15.714-8.066 25.426a809 809 0 0 1-5.761 17.148l-26.508 75.86Zm23.375-35.309v-13.516h60.09v13.516Zm97.297 35.309V769.898h14.817V882.25h59.101v13.516Zm130.715 2.027c-9.437 0-17.617-1.715-24.531-5.152q-10.37-5.238-16.051-14.782-5.679-9.545-5.68-22.64h15.149q0 8.951 3.62 15.46 3.704 6.419 10.7 9.884 6.996 3.376 16.793 3.378 8.971 0 15.559-2.703c4.441-1.804 7.902-4.367 10.37-7.687q3.705-4.987 3.704-11.742-.001-5.24-2.387-9.125-2.39-3.886-7.738-6.758-5.267-2.954-14.156-5.153l-13.75-3.464q-18.766-4.728-27.079-12.672-8.315-7.94-8.316-20.778 0-10.898 5.188-18.925 5.266-8.11 14.816-12.586c6.367-2.985 13.8-4.477 22.309-4.477 8.503 0 15.886 1.606 22.14 4.817q9.468 4.727 14.735 13.515 5.268 8.786 5.597 20.863h-14.652q-.659-11.824-8.23-18.5-7.577-6.757-20.087-6.757c-5.265 0-9.96.902-14.074 2.703q-6.093 2.704-9.633 7.52-3.456 4.814-3.457 11.066.001 4.898 2.47 8.53 2.47 3.634 7.82 6.423c3.62 1.855 8.398 3.547 14.324 5.066l13.91 3.547q8.972 2.284 15.558 5.492 6.586 3.21 10.864 7.434 4.365 4.224 6.504 9.633 2.139 5.319 2.14 11.91-.001 10.897-5.597 19.176-5.515 8.28-15.559 12.925-9.956 4.56-23.293 4.559m0 0" style="stroke:none;fill-rule:nonzero;fill:#1a1a1a;fill-opacity:1"/><path d="M517.902 659.035s-11.496-29.355-18.73-70.2c-7.238-40.847-14.902-64.245-43.426-86.37l15.113-16.86s16.957 2.41 19.063-18.5l20.621 24.07-15.652-32.491s13.218 2.511 22.16-17.91l9.578 36.378S512.582 416.95 546 392.484c-.21-.851-11.281-14.89-11.281-14.89l-14.477 10.422s-16.601 14.468-31.504.851c-14.898-13.613 4.899-30.844 4.899-30.844l37.676-31.484 64.496 51.055-22.348 112.535 31.289 86.578-30.863 19.574-25.121-79.988s8.09-1.914 15.113-10.637l-71.848 25.38s12.64 1.355 27.395-3.911l31.156 88.45Zm0 0" style="stroke:none;fill-rule:nonzero;fill:#7f7f7f;fill-opacity:1"/><path d="m527.852 524.57 14.753-5.265 26.79 82.129-14.149 10.68ZM412.746 506.297 428.5 516.93l-29.8 31.484s-6.177 1.492-5.11-4.465c1.062-5.957 19.156-37.652 19.156-37.652M428.71 469.492c10.22 11.488 33.634 17.871 33.634 17.871l-25.117 29.992-27.247-18.082ZM420.2 471.406s-16.817-16.379-18.52-32.758c0 0 11.918 21.696 21.285 28.079ZM457.023 478.426s-45.554-17.016-53.214-48.5c0 0-4.473-21.063 17.878-13.192l52.364 36.164s12.984 7.02 2.554 21.274-19.582 4.254-19.582 4.254M422.965 409.504s-12.985-12.55-2.34-23.828c10.64-11.274 25.969-3.403 25.969-3.403l49.597 33.825s17.454 10.847 6.383 25.527c-11.066 14.68-22.988 6.168-22.988 6.168ZM447.445 374.191s-15.539-13.191-3.832-24.68 26.395-1.062 26.395-1.062l14.472 10.211s-14.898 16.168-4.468 29.57 26.183 11.489 26.183 11.489 10.004-.215 16.817-7.024c0 0 2.98 11.703-6.176 15.317-9.152 3.617-23.414-2.125-23.414-2.125ZM489.164 353.129l-21.496-12.977s-7.453-20.422 1.488-22.976c0 0 7.024-14.465 22.352-5.106 15.324 9.364 24.265 16.594 24.265 16.594ZM581.762 333.559l-11.07 15.316-37.465-28.293s-4.254.211-10.856 5.957c-6.598 5.742 11.496-23.187 11.496-23.187s26.395 4.89 27.672 10.636c0 0 15.965 11.485 20.223 19.57m0 0" style="stroke:none;fill-rule:nonzero;fill:#7f7f7f;fill-opacity:1"/><path d="M586.445 332.281s-12.984-25.527-49.812-34.886c1.066-4.895-11.492-23.614 8.304-48.29 0 0 32.352 5.317 56.622 29.567 0 0 21.921 14.68 26.82 28.719 0 0-14.262 23.187-41.934 24.89m0 0" style="stroke:none;fill-rule:nonzero;fill:#7f7f7f;fill-opacity:1"/><path d="M633.488 299.52s-34.484-47.223-80.465-57.649c0 0 9.368-27.656 49.813-21.484 40.441 6.168 40.016 52.543 40.016 52.543s2.343 13.828-9.364 26.59m0 0" style="stroke:none;fill-rule:nonzero;fill:#7f7f7f;fill-opacity:1"/><path d="M512.055 748.508c-20.637-1.106-30.39-4.906-53.47-33.79-63.237-85.757-229.347-66.304-311.886-38.507-23.996 8.773-36.41-14.074-10.512-19.64 89.653-22.118 184.708-36.891 273.481-4.65 0 0 19.973 8.126 35.68 17.856 0 0 24.207 14.387 36.437 39.696 0 0 9.13 15.039 30.3 16.261Zm-.11 0c20.637-1.106 30.39-4.906 53.47-33.79 63.237-85.757 229.347-66.304 311.89-38.507 23.996 8.773 36.406-14.074 10.508-19.64-89.653-22.118-184.704-36.891-273.481-4.65 0 0-19.973 8.126-35.68 17.856 0 0-24.207 14.387-36.437 39.696 0 0-9.13 15.039-30.297 16.261Zm0 0" style="stroke:none;fill-rule:nonzero;fill:#780502;fill-opacity:1"/><path d="M494.742 673.379c-113.125-110.281-319.367-52.86-346.394-44.703l16.566-23.278c210.461-49.722 303.422 23.649 329.828 67.98m34.516 0c113.129-110.281 319.367-52.86 346.394-44.703l-16.566-23.278c-210.461-49.722-303.422 23.649-329.828 67.98m0 0" style="stroke:none;fill-rule:nonzero;fill:#8b3131;fill-opacity:1"/><path d="M496.781 642.969s-82.66-106.254-287.316-69.332l17.95-27.008s189.98-28.293 269.366 96.34m30.438 0s82.66-106.254 287.32-69.332l-17.953-27.008s-189.98-28.293-269.367 96.34m0 0" style="stroke:none;fill-rule:nonzero;fill:#af6849;fill-opacity:1"/><path d="M688.191 519.059c142.797-.547 166.25-15.024 155.371-34.438-4.132-7.812-55.687-26.848-126.507-7.437-23.867 10.18-6.614 20.218 11.437 22.414 7.477.91 57.446 2.902 54.79-14.743-4.684 10.047-26.317 14.274-50.122 12.637-26.347-1.808-24.687-10.078-24.687-10.078s-1.446-5.742 17.312-10.078c39.625-9.164 103.063-7.14 115.598 10.23 4.199 5.82 1.05 16.844-31.61 21.059-6.378.82-56.535 8.484-121.015 6.918Zm0 0" style="stroke:none;fill-rule:nonzero;fill:#1a1a1a;fill-opacity:1"/><path d="M688.797 515.547s-12.961 1.543-28.79 2.402c0 0 22.427 1.07 28.9 1.055 6.5-.02-.11-3.457-.11-3.457m0 0" style="stroke:none;fill-rule:nonzero;fill:#1a1a1a;fill-opacity:1"/><path d="M888.203 269.426s-5.723 15.191-26.644 24.367c0 0-9.332 18.05-7.524 2.86l-31.008 11.882s-4.968 2.856-10.687 9.024c.152-1.352-1.805 2.707 1.355-6.618-4.515.75-23.48 12.485-58.55 16.997-2.41.601-13.247 3.16-19.72 6.468 0 0-26.94 7.824-34.616 25.274 0 0-6.172 6.765-13.547 22.11 0 0-3.766 4.51 1.05-10.528 0 0 3.614-11.582 10.688-19.555 0 0-15.652 6.016-27.094 25.117l-3.761 5.418s-2.258 6.317-3.915-.3c0 0-9.933 10.078-13.246 34.898 0 0 0 2.254-.75 6.918 0 0-.601 6.168-4.214.152 0 0 1.804 8.723.3 11.73 0 0 2.106 12.184-6.32-1.952 0 0-12.344-17.301-3.766 1.203 0 0 16.407 42.57-6.02 10.68 0 0 .15 4.21 4.216 12.03 0 0 11.136 17.75-10.235-5.714 0 0-9.785-15.344-4.668 2.406 0 0 1.957 10.23 6.774 14.441 0 0 17.16 15.192-9.18 2.407 0 0 3.309 8.125 15.5 11.882l-5.117 2.707s11.441-1.804 6.773 6.168c0 0-12.492 26.176-15.05 37.457-2.559 11.282-1.204 16.247-1.204 16.247s-7.828 2.105-20.996.3c0 0-5.949 1.203 0 2.782 0 0 9.633 2.484 15.426 2.785 5.797.3 8.43-1.582 8.43-1.582s2.547-10.219 12.55-22.985l4.258-5.53s4.153-5.106 3.192-9.997c0 0 2.578-12.105 5.285-16.543l2.336-5.715s1.351-2.707 2.707-1.73 3.46 5.191 3.46 5.191 1.509 2.633.907 4.438c0 0 .938 2.933 1.73 2.933.79 0 .45-2.144.45-2.144l-.035-5.153s.187-6.207 3.8-1.242c3.61 4.965 2.559.977 2.559.977s-1.809-3.27-2.297-3.645c0 0-1.617-2.484 1.395-1.281 3.008 1.203 10.648 3.8 11.777 3.535 0-.02.016-.691-6.137-4.023-6.246-3.383-4.101-3.91-4.101-3.91s1.62-1.391 10.5-.829c0 0 .566-.113-5.078-1.843-5.645-1.727.976-2.555.976-2.555l5.985-1.281s5.304-.903 7.937-2.22c2.43-1.21 2.652-1.175 2.672-1.163 0 0 1.922-1.277-.113-.828-2.032.453-9.332 1.957-14.262 2.597 0 0-2.781.77-3.895.602-1.109-.172-1.898-.285.286-1.43 2.18-1.148 7.488-2.86 7.488-2.86l7.2-2.425s12.132-3.988 16.124-6.383c0 0 9.047-3.562 9.899-4.308.851-.742 8.3-3.723.32-2.125 0 0-6.547.851-9.848.902-3.297.055-4.945-.105-4.945-.105s-6.176-1.598.21-2.29c6.388-.69 17.188-3.722 17.188-3.722s13.145-4.2 19.903-10.742c.32-.211 10.324-8.082 16.55-17.707l8.301-15.426s-6.543 1.117-7.074 1.172c-.535.05-7.879 1.062-1.863-2.715.316-.266 1.543-1.434 8.3-4.094s2.98-2.34 2.98-2.34-9.632 1.543-13.198 1.383c0 0-10.43.746-.957-3.031 0 0 13.57-4.84 16.976-5 0 0 3.727-1.543 5.375-6.54 0 0 4.95-8.35 12.453-14.413.637-.477 11.868-11.328 38.157-23.774 0 0 6.66-2.07.863-3.16-.074-.113-6.66-3.574 1.203-3.047l15.543.977s44.102-23.88 51.328-72.914m-29.156 39.097s-19.703 13.957-37.969 21.832c0 0-123.933 41.528-182.32 176.122 0 0-6.446 11.453-7.88-1.79 0 0 50.864-128.152 186.259-177.91 0 0 29.37-11.812 41.91-18.254m0 0" style="stroke:none;fill-rule:nonzero;fill:#020202;fill-opacity:1"/></svg>